<?xml version="1.0" encoding="UTF-8"?>
<svg id="LOGO-PURPLE" xmlns="http://www.w3.org/2000/svg" xmlns:xlink="http://www.w3.org/1999/xlink" viewBox="0 0 500 300">
  <defs>
    <style>
      .cls-1 {
        fill: url(#Dégradé_sans_nom_328);
      }

      .cls-2 {
        fill: #7f7aab;
      }

      .cls-3 {
        fill: url(#Dégradé_sans_nom_328-3);
      }

      .cls-4 {
        fill: url(#Dégradé_sans_nom_328-2);
      }

      .cls-5 {
        fill: url(#Dégradé_sans_nom_328-4);
      }
    </style>
    <linearGradient id="Dégradé_sans_nom_328" data-name="Dégradé sans nom 328" x1="196.956" y1="173.371" x2="104.596" y2="139.754" gradientUnits="userSpaceOnUse">
      <stop offset="0" stop-color="#d4d2e4"/>
      <stop offset="1" stop-color="#9894bd"/>
    </linearGradient>
    <linearGradient id="Dégradé_sans_nom_328-2" data-name="Dégradé sans nom 328" x1="296.956" y1="173.371" x2="204.596" xlink:href="#Dégradé_sans_nom_328"/>
    <linearGradient id="Dégradé_sans_nom_328-3" data-name="Dégradé sans nom 328" x1="396.956" y1="173.371" x2="304.596" y2="139.754" xlink:href="#Dégradé_sans_nom_328"/>
    <linearGradient id="Dégradé_sans_nom_328-4" data-name="Dégradé sans nom 328" x1="496.956" y1="173.371" x2="404.596" y2="139.754" xlink:href="#Dégradé_sans_nom_328"/>
  </defs>
  <polygon class="cls-2" points="28.701 223.528 78.701 73.528 128.701 73.528 78.701 223.528 28.701 223.528"/>
  <polygon class="cls-1" points="128.701 73.528 178.701 223.528 128.701 223.528 103.701 148.528 128.701 73.528"/>
  <polygon class="cls-2" points="128.701 223.528 178.701 73.528 228.701 73.528 178.701 223.528 128.701 223.528"/>
  <polygon class="cls-4" points="228.701 73.528 278.701 223.528 228.701 223.528 203.701 148.528 228.701 73.528"/>
  <polygon class="cls-2" points="228.701 223.528 278.701 73.528 328.701 73.528 278.701 223.528 228.701 223.528"/>
  <polygon class="cls-3" points="328.701 73.528 378.701 223.528 328.701 223.528 303.701 148.528 328.701 73.528"/>
  <polygon class="cls-2" points="328.701 223.528 378.701 73.528 428.701 73.528 378.701 223.528 328.701 223.528"/>
  <polygon class="cls-5" points="428.701 73.528 478.701 223.528 428.701 223.528 403.701 148.528 428.701 73.528"/>
</svg>