<?xml version="1.0" encoding="UTF-8"?>
<svg id="LOGO-PURPLE" xmlns="http://www.w3.org/2000/svg" xmlns:xlink="http://www.w3.org/1999/xlink" viewBox="0 0 2400 300">
  <defs>
    <style>
      .cls-1 {
        fill: url(#Dégradé_sans_nom_328);
      }

      .cls-2 {
        fill: #7f7aab;
      }

      .cls-3 {
        fill: url(#Dégradé_sans_nom_328-3);
      }

      .cls-4 {
        fill: url(#Dégradé_sans_nom_328-2);
      }

      .cls-5 {
        fill: url(#Dégradé_sans_nom_328-5);
      }

      .cls-6 {
        fill: url(#Dégradé_sans_nom_328-4);
      }

      .cls-7 {
        fill: url(#Dégradé_sans_nom_328-6);
      }
    </style>
    <linearGradient id="Dégradé_sans_nom_328" data-name="Dégradé sans nom 328" x1="260.279" y1="164.035" x2="190.644" y2="138.69" gradientUnits="userSpaceOnUse">
      <stop offset="0" stop-color="#d4d2e4"/>
      <stop offset="1" stop-color="#9894bd"/>
    </linearGradient>
    <linearGradient id="Dégradé_sans_nom_328-2" data-name="Dégradé sans nom 328" x1="468.497" y1="187.247" x2="335.088" y2="138.69" xlink:href="#Dégradé_sans_nom_328"/>
    <linearGradient id="Dégradé_sans_nom_328-3" data-name="Dégradé sans nom 328" x1="1394.168" y1="164.035" x2="1324.533" y2="138.69" xlink:href="#Dégradé_sans_nom_328"/>
    <linearGradient id="Dégradé_sans_nom_328-4" data-name="Dégradé sans nom 328" x1="1602.386" y1="187.247" x2="1468.977" y2="138.69" xlink:href="#Dégradé_sans_nom_328"/>
    <linearGradient id="Dégradé_sans_nom_328-5" data-name="Dégradé sans nom 328" x1="699.608" y1="187.247" x2="566.199" y2="138.69" xlink:href="#Dégradé_sans_nom_328"/>
    <linearGradient id="Dégradé_sans_nom_328-6" data-name="Dégradé sans nom 328" x1="1833.497" y1="187.247" x2="1700.088" y2="138.69" xlink:href="#Dégradé_sans_nom_328"/>
  </defs>
  <g>
    <polygon class="cls-2" points="225.461 43.029 261.572 151.362 225.461 259.696 189.35 151.362 225.461 43.029"/>
    <polygon class="cls-2" points="369.906 43.029 442.128 259.696 369.906 259.696 333.795 151.362 369.906 43.029"/>
    <polygon class="cls-2" points="81.017 259.696 153.239 43.029 225.461 43.029 153.239 259.696 81.017 259.696"/>
    <polygon class="cls-2" points="225.461 259.696 297.684 43.029 369.906 43.029 297.684 259.696 225.461 259.696"/>
    <polygon class="cls-1" points="225.461 43.029 261.572 151.362 225.461 259.696 189.35 151.362 225.461 43.029"/>
    <polygon class="cls-4" points="369.906 43.029 442.128 259.696 369.906 259.696 333.795 151.362 369.906 43.029"/>
  </g>
  <g>
    <polygon class="cls-2" points="1359.35 43.029 1395.461 151.362 1359.35 259.696 1323.239 151.362 1359.35 43.029"/>
    <polygon class="cls-2" points="1503.795 43.029 1576.017 259.696 1503.795 259.696 1467.684 151.362 1503.795 43.029"/>
    <polygon class="cls-2" points="1214.906 259.696 1287.128 43.029 1359.35 43.029 1287.128 259.696 1214.906 259.696"/>
    <polygon class="cls-2" points="1359.35 259.696 1431.573 43.029 1503.795 43.029 1431.573 259.696 1359.35 259.696"/>
    <polygon class="cls-3" points="1359.35 43.029 1395.461 151.362 1359.35 259.696 1323.239 151.362 1359.35 43.029"/>
    <polygon class="cls-6" points="1503.795 43.029 1576.017 259.696 1503.795 259.696 1467.684 151.362 1503.795 43.029"/>
  </g>
  <g>
    <polygon class="cls-2" points="601.017 43.029 673.239 259.696 601.017 259.696 564.906 151.362 601.017 43.029"/>
    <polygon class="cls-2" points="456.572 259.696 528.795 43.029 601.017 43.029 528.795 259.696 456.572 259.696"/>
    <polygon class="cls-2" points="543.239 216.362 564.906 216.362 579.35 259.696 528.795 259.696 543.239 216.362"/>
    <polygon class="cls-5" points="601.017 43.029 673.239 259.696 601.017 259.696 564.906 151.362 601.017 43.029"/>
  </g>
  <g>
    <polygon class="cls-2" points="1734.906 43.029 1807.128 259.696 1734.906 259.696 1698.795 151.362 1734.906 43.029"/>
    <polygon class="cls-2" points="1590.461 259.696 1662.684 43.029 1734.906 43.029 1662.684 259.696 1590.461 259.696"/>
    <polygon class="cls-2" points="1677.128 216.362 1698.795 216.362 1713.239 259.696 1662.684 259.696 1677.128 216.362"/>
    <polygon class="cls-7" points="1734.906 43.029 1807.128 259.696 1734.906 259.696 1698.795 151.362 1734.906 43.029"/>
  </g>
  <g>
    <polygon class="cls-2" points="1951.573 151.362 1987.684 259.696 1929.906 259.696 1893.795 151.362 1951.573 151.362"/>
    <polygon class="cls-2" points="1951.573 151.362 1987.684 43.029 1929.906 43.029 1893.795 151.362 1951.573 151.362"/>
    <rect class="cls-2" x="1843.239" y="43.029" width="57.778" height="216.667"/>
  </g>
  <g>
    <polygon class="cls-2" points="2290.094 173.029 2318.983 259.696 2261.205 259.696 2232.316 173.029 2290.094 173.029"/>
    <polygon class="cls-2" points="2290.094 173.029 2314.168 100.807 2256.39 100.807 2232.316 173.029 2290.094 173.029"/>
    <rect class="cls-2" x="2175.461" y="43.029" width="57.778" height="216.667"/>
    <rect class="cls-2" x="2175.461" y="43.029" width="138.707" height="57.778"/>
  </g>
  <g>
    <rect class="cls-2" x="709.35" y="100.807" width="57.778" height="158.889"/>
    <rect class="cls-2" x="651.573" y="43.029" width="173.333" height="57.778"/>
  </g>
  <g>
    <rect class="cls-2" x="1012.684" y="43.029" width="57.778" height="216.667"/>
    <rect class="cls-2" x="1121.017" y="43.029" width="57.778" height="216.667"/>
    <rect class="cls-2" x="1070.461" y="122.473" width="50.556" height="57.778"/>
  </g>
  <g>
    <rect class="cls-2" x="861.017" y="100.807" width="57.778" height="101.111"/>
    <rect class="cls-2" x="861.017" y="43.029" width="115.556" height="57.778"/>
    <rect class="cls-2" x="861.017" y="201.918" width="115.556" height="57.778"/>
  </g>
  <g>
    <rect class="cls-2" x="2023.795" y="100.807" width="57.778" height="101.111"/>
    <rect class="cls-2" x="2023.795" y="43.029" width="115.556" height="57.778"/>
    <rect class="cls-2" x="2081.573" y="129.696" width="43.333" height="43.333"/>
    <rect class="cls-2" x="2023.795" y="201.918" width="115.556" height="57.778"/>
  </g>
</svg>