<?xml version="1.0" encoding="UTF-8"?>
<svg id="LOGO-PURPLE" xmlns="http://www.w3.org/2000/svg" xmlns:xlink="http://www.w3.org/1999/xlink" viewBox="0 0 800 300">
  <defs>
    <style>
      .cls-1 {
        fill: url(#Dégradé_sans_nom_328);
      }

      .cls-2 {
        fill: #7f7aab;
      }

      .cls-3 {
        fill: url(#Dégradé_sans_nom_328-3);
      }

      .cls-4 {
        fill: url(#Dégradé_sans_nom_328-2);
      }

      .cls-5 {
        fill: url(#Dégradé_sans_nom_328-4);
      }
    </style>
    <linearGradient id="Dégradé_sans_nom_328" data-name="Dégradé sans nom 328" x1="318.036" y1="184.412" x2="184.627" y2="135.855" gradientUnits="userSpaceOnUse">
      <stop offset="0" stop-color="#d4d2e4"/>
      <stop offset="1" stop-color="#9894bd"/>
    </linearGradient>
    <linearGradient id="Dégradé_sans_nom_328-2" data-name="Dégradé sans nom 328" x1="462.48" y1="184.412" x2="329.071" y2="135.855" xlink:href="#Dégradé_sans_nom_328"/>
    <linearGradient id="Dégradé_sans_nom_328-3" data-name="Dégradé sans nom 328" x1="606.925" y1="184.412" x2="473.516" y2="135.855" xlink:href="#Dégradé_sans_nom_328"/>
    <linearGradient id="Dégradé_sans_nom_328-4" data-name="Dégradé sans nom 328" x1="751.369" y1="184.412" x2="617.96" y2="135.855" xlink:href="#Dégradé_sans_nom_328"/>
  </defs>
  <polygon class="cls-2" points="75 256.861 147.222 40.194 219.444 40.194 147.222 256.861 75 256.861"/>
  <polygon class="cls-1" points="219.444 40.194 291.667 256.861 219.444 256.861 183.333 148.528 219.444 40.194"/>
  <polygon class="cls-2" points="219.444 256.861 291.667 40.194 363.889 40.194 291.667 256.861 219.444 256.861"/>
  <polygon class="cls-4" points="363.889 40.194 436.111 256.861 363.889 256.861 327.778 148.528 363.889 40.194"/>
  <polygon class="cls-2" points="363.889 256.861 436.111 40.194 508.333 40.194 436.111 256.861 363.889 256.861"/>
  <polygon class="cls-3" points="508.333 40.194 580.556 256.861 508.333 256.861 472.222 148.528 508.333 40.194"/>
  <polygon class="cls-2" points="508.333 256.861 580.556 40.194 652.778 40.194 580.556 256.861 508.333 256.861"/>
  <polygon class="cls-5" points="652.778 40.194 725 256.861 652.778 256.861 616.667 148.528 652.778 40.194"/>
</svg>